<svg width="129" height="41" viewBox="0 0 129 41" fill="none" xmlns="http://www.w3.org/2000/svg">
<path d="M67.547 10.55C67.547 11.9915 66.3858 13.1527 64.9444 13.1527C63.5029 13.1527 62.3418 11.9915 62.3418 10.55C62.3418 9.10861 63.4629 7.94745 64.9444 7.94745C66.4258 7.98749 67.547 9.14865 67.547 10.55ZM56.8162 15.7953C56.8162 16.0355 56.8162 16.4359 56.8162 16.4359C56.8162 16.4359 55.575 14.8343 52.9324 14.8343C48.568 14.8343 45.1646 18.1577 45.1646 22.7623C45.1646 27.3268 48.5279 30.6902 52.9324 30.6902C55.615 30.6902 56.8162 29.0485 56.8162 29.0485V29.7292C56.8162 30.0495 57.0565 30.2898 57.3768 30.2898H60.62V15.2347C60.62 15.2347 57.6571 15.2347 57.3768 15.2347C57.0565 15.2347 56.8162 15.515 56.8162 15.7953ZM56.8162 25.4449C56.2156 26.3258 55.0144 27.0866 53.573 27.0866C51.0104 27.0866 49.0485 25.485 49.0485 22.7623C49.0485 20.0395 51.0104 18.4379 53.573 18.4379C54.9744 18.4379 56.2557 19.2387 56.8162 20.0796V25.4449ZM63.0224 15.2347H66.8663V30.2898H63.0224V15.2347ZM120.44 14.8343C117.797 14.8343 116.556 16.4359 116.556 16.4359V7.98749H112.712V30.2898C112.712 30.2898 115.675 30.2898 115.955 30.2898C116.276 30.2898 116.516 30.0095 116.516 29.7292V29.0485C116.516 29.0485 117.757 30.6902 120.4 30.6902C124.764 30.6902 128.168 27.3268 128.168 22.7623C128.168 18.1977 124.764 14.8343 120.44 14.8343ZM119.799 27.0465C118.318 27.0465 117.157 26.2858 116.556 25.4049V20.0395C117.157 19.2387 118.438 18.3979 119.799 18.3979C122.362 18.3979 124.324 19.9995 124.324 22.7222C124.324 25.4449 122.362 27.0465 119.799 27.0465ZM110.71 21.3609V30.3298H106.866V21.8013C106.866 19.3188 106.065 18.3178 103.903 18.3178C102.742 18.3178 101.541 18.9184 100.78 19.7993V30.2898H96.9363V15.2347H99.9794C100.3 15.2347 100.54 15.515 100.54 15.7953V16.4359C101.661 15.2748 103.143 14.8343 104.624 14.8343C106.306 14.8343 107.707 15.3148 108.828 16.2758C110.19 17.3969 110.71 18.8383 110.71 21.3609ZM87.607 14.8343C84.9644 14.8343 83.7231 16.4359 83.7231 16.4359V7.98749H79.8793V30.2898C79.8793 30.2898 82.8423 30.2898 83.1225 30.2898C83.4429 30.2898 83.6831 30.0095 83.6831 29.7292V29.0485C83.6831 29.0485 84.9243 30.6902 87.567 30.6902C91.9313 30.6902 95.3347 27.3268 95.3347 22.7623C95.3748 18.1977 91.9714 14.8343 87.607 14.8343ZM86.9664 27.0465C85.4849 27.0465 84.3237 26.2858 83.7231 25.4049V20.0395C84.3237 19.2387 85.605 18.3979 86.9664 18.3979C89.5289 18.3979 91.4909 19.9995 91.4909 22.7222C91.4909 25.4449 89.5289 27.0465 86.9664 27.0465ZM76.556 14.8343C77.7171 14.8343 78.3177 15.0345 78.3177 15.0345V18.5981C78.3177 18.5981 75.1145 17.517 73.1125 19.7993V30.3298H69.2687V15.2347C69.2687 15.2347 72.2317 15.2347 72.5119 15.2347C72.8322 15.2347 73.0725 15.515 73.0725 15.7953V16.4359C73.7932 15.5951 75.3548 14.8343 76.556 14.8343ZM36.6361 28.9284C36.4359 28.4479 36.2357 27.9274 36.0355 27.487C35.7151 26.7663 35.3948 26.0856 35.1145 25.4449L35.0745 25.4049C32.3117 19.3989 29.3488 13.3128 26.2257 7.30681L26.1055 7.06657C25.7852 6.46597 25.4649 5.82533 25.1446 5.18468C24.7442 4.46396 24.3438 3.7032 23.7031 2.98248C22.4218 1.38088 20.58 0.5 18.618 0.5C16.616 0.5 14.8142 1.38088 13.4929 2.9024C12.8923 3.62312 12.4519 4.38388 12.0515 5.1046C11.7312 5.74525 11.4108 6.38589 11.0905 6.98649L10.9704 7.22673C7.88732 13.2327 4.88431 19.3188 2.12155 25.3248L2.08151 25.4049C1.80123 26.0455 1.48091 26.7262 1.16059 27.4469C0.960391 27.8874 0.760191 28.3679 0.559991 28.8884C0.0394705 30.3699 -0.12069 31.7713 0.0795105 33.2127C0.519951 36.2157 2.52195 38.7382 5.28471 39.8594C6.32576 40.2998 7.40684 40.5 8.52796 40.5C8.84828 40.5 9.24868 40.46 9.569 40.4199C10.8903 40.2598 12.2517 39.8193 13.573 39.0586C15.2146 38.1376 16.7762 36.8163 18.538 34.8944C20.2997 36.8163 21.9013 38.1376 23.5029 39.0586C24.8243 39.8193 26.1856 40.2598 27.5069 40.4199C27.8272 40.46 28.2277 40.5 28.548 40.5C29.6691 40.5 30.7902 40.2998 31.7912 39.8594C34.594 38.7382 36.556 36.1757 36.9964 33.2127C37.3167 31.8113 37.1566 30.4099 36.6361 28.9284ZM18.578 31.0105C16.4158 28.2878 15.0144 25.7252 14.534 23.5631C14.3338 22.6421 14.2937 21.8413 14.4138 21.1206C14.4939 20.48 14.7342 19.9194 15.0545 19.4389C15.8152 18.3579 17.0965 17.6772 18.578 17.6772C20.0595 17.6772 21.3808 18.3178 22.1015 19.4389C22.4218 19.9194 22.6621 20.48 22.7422 21.1206C22.8623 21.8413 22.8222 22.6822 22.622 23.5631C22.1416 25.6852 20.7402 28.2477 18.578 31.0105ZM34.554 32.8924C34.2737 34.9745 32.8723 36.7763 30.9103 37.5771C29.9494 37.9775 28.9083 38.0976 27.8673 37.9775C26.8663 37.8574 25.8653 37.537 24.8243 36.9364C23.3828 36.1356 21.9414 34.8944 20.2597 33.0526C22.9023 29.8093 24.5039 26.8463 25.1045 24.2037C25.3848 22.9625 25.4249 21.8413 25.3047 20.8003C25.1446 19.7993 24.7842 18.8784 24.2236 18.0776C22.9824 16.2758 20.9003 15.2347 18.578 15.2347C16.2557 15.2347 14.1736 16.3158 12.9324 18.0776C12.3718 18.8784 12.0114 19.7993 11.8513 20.8003C11.6911 21.8413 11.7312 23.0025 12.0515 24.2037C12.6521 26.8463 14.2937 29.8493 16.8963 33.0926C15.2547 34.9344 13.7732 36.1757 12.3318 36.9765C11.2907 37.5771 10.2897 37.8974 9.28872 38.0175C8.20764 38.1376 7.1666 37.9775 6.24568 37.6171C4.28371 36.8163 2.88231 35.0145 2.60203 32.9324C2.48191 31.9314 2.56199 30.9304 2.96239 29.8093C3.08251 29.4089 3.28271 29.0085 3.48291 28.528C3.76319 27.8874 4.08351 27.2067 4.40383 26.526L4.44387 26.4459C7.20664 20.48 10.1696 14.3939 13.2527 8.46797L13.3728 8.22773C13.6931 7.62713 14.0134 6.98649 14.3338 6.38589C14.6541 5.74524 15.0144 5.14464 15.4549 4.62412C16.2957 3.66316 17.4168 3.14264 18.6581 3.14264C19.8993 3.14264 21.0204 3.66316 21.8613 4.62412C22.3017 5.14464 22.6621 5.74524 22.9824 6.38589C23.3027 6.98649 23.623 7.62713 23.9434 8.22773L24.0635 8.46797C27.1065 14.4339 30.0695 20.52 32.8323 26.486V26.526C33.1526 27.1667 33.4329 27.8874 33.7532 28.528C33.9534 29.0085 34.1536 29.4089 34.2737 29.8093C34.594 30.8503 34.7141 31.8514 34.554 32.8924Z" fill="#1D2939"/>
</svg>
