<svg width="381" height="492" viewBox="0 0 381 492" fill="none" xmlns="http://www.w3.org/2000/svg">
<g filter="url(#filter0_b_2675_12205)">
<rect width="381" height="492" fill="#101828" fill-opacity="0.6"/>
<path d="M90.9397 173H87.3157V158.888H82.6597V155.864H95.5957V158.888H90.9397V173ZM101.526 158.48C101.526 159.12 101.502 159.736 101.454 160.328C101.422 160.92 101.39 161.336 101.358 161.576H101.55C101.838 161.128 102.174 160.768 102.558 160.496C102.942 160.208 103.366 160 103.83 159.872C104.31 159.728 104.814 159.656 105.342 159.656C106.286 159.656 107.11 159.824 107.814 160.16C108.518 160.496 109.062 161.016 109.446 161.72C109.846 162.424 110.046 163.336 110.046 164.456V173H106.47V165.344C106.47 164.4 106.294 163.696 105.942 163.232C105.606 162.752 105.078 162.512 104.358 162.512C103.638 162.512 103.07 162.68 102.654 163.016C102.254 163.352 101.966 163.84 101.79 164.48C101.614 165.12 101.526 165.904 101.526 166.832V173H97.9501V154.76H101.526V158.48ZM117.3 159.896V173H113.724V159.896H117.3ZM115.524 154.76C116.052 154.76 116.508 154.888 116.892 155.144C117.276 155.384 117.468 155.84 117.468 156.512C117.468 157.168 117.276 157.624 116.892 157.88C116.508 158.136 116.052 158.264 115.524 158.264C114.98 158.264 114.516 158.136 114.132 157.88C113.764 157.624 113.58 157.168 113.58 156.512C113.58 155.84 113.764 155.384 114.132 155.144C114.516 154.888 114.98 154.76 115.524 154.76ZM130.18 169.112C130.18 169.992 129.972 170.744 129.556 171.368C129.14 171.976 128.516 172.44 127.684 172.76C126.852 173.08 125.82 173.24 124.588 173.24C123.676 173.24 122.892 173.176 122.236 173.048C121.58 172.936 120.924 172.744 120.268 172.472V169.52C120.972 169.84 121.732 170.104 122.548 170.312C123.364 170.52 124.084 170.624 124.708 170.624C125.412 170.624 125.908 170.52 126.196 170.312C126.5 170.104 126.652 169.832 126.652 169.496C126.652 169.272 126.588 169.072 126.46 168.896C126.348 168.72 126.092 168.52 125.692 168.296C125.292 168.072 124.668 167.784 123.82 167.432C123.004 167.08 122.332 166.736 121.804 166.4C121.276 166.048 120.884 165.632 120.628 165.152C120.372 164.656 120.244 164.04 120.244 163.304C120.244 162.088 120.716 161.176 121.66 160.568C122.604 159.96 123.86 159.656 125.428 159.656C126.244 159.656 127.02 159.736 127.756 159.896C128.492 160.056 129.252 160.32 130.036 160.688L128.956 163.256C128.524 163.064 128.108 162.896 127.708 162.752C127.308 162.608 126.916 162.496 126.532 162.416C126.164 162.336 125.78 162.296 125.38 162.296C124.852 162.296 124.452 162.368 124.18 162.512C123.924 162.656 123.796 162.872 123.796 163.16C123.796 163.368 123.86 163.56 123.988 163.736C124.132 163.896 124.396 164.072 124.78 164.264C125.18 164.456 125.764 164.712 126.532 165.032C127.284 165.336 127.932 165.656 128.476 165.992C129.02 166.312 129.436 166.72 129.724 167.216C130.028 167.696 130.18 168.328 130.18 169.112ZM144.528 173.24C143.232 173.24 142.128 173.008 141.216 172.544C140.304 172.064 139.608 171.328 139.128 170.336C138.648 169.344 138.408 168.072 138.408 166.52C138.408 164.92 138.68 163.616 139.224 162.608C139.768 161.6 140.52 160.856 141.48 160.376C142.456 159.896 143.576 159.656 144.84 159.656C145.736 159.656 146.512 159.744 147.168 159.92C147.84 160.096 148.424 160.304 148.92 160.544L147.864 163.304C147.304 163.08 146.776 162.896 146.28 162.752C145.8 162.608 145.32 162.536 144.84 162.536C144.216 162.536 143.696 162.688 143.28 162.992C142.864 163.28 142.552 163.72 142.344 164.312C142.152 164.888 142.056 165.616 142.056 166.496C142.056 167.36 142.16 168.08 142.368 168.656C142.592 169.216 142.912 169.64 143.328 169.928C143.744 170.2 144.248 170.336 144.84 170.336C145.592 170.336 146.256 170.24 146.832 170.048C147.408 169.84 147.968 169.56 148.512 169.208V172.256C147.968 172.608 147.392 172.856 146.784 173C146.192 173.16 145.44 173.24 144.528 173.24ZM163.432 166.424C163.432 167.512 163.28 168.48 162.976 169.328C162.688 170.176 162.264 170.896 161.704 171.488C161.16 172.064 160.496 172.504 159.712 172.808C158.928 173.096 158.04 173.24 157.048 173.24C156.136 173.24 155.288 173.096 154.504 172.808C153.736 172.504 153.072 172.064 152.512 171.488C151.952 170.896 151.512 170.176 151.192 169.328C150.888 168.48 150.736 167.512 150.736 166.424C150.736 164.968 150.992 163.744 151.504 162.752C152.016 161.744 152.752 160.976 153.712 160.448C154.672 159.92 155.808 159.656 157.12 159.656C158.352 159.656 159.44 159.92 160.384 160.448C161.328 160.976 162.072 161.744 162.616 162.752C163.16 163.744 163.432 164.968 163.432 166.424ZM154.384 166.424C154.384 167.288 154.472 168.016 154.648 168.608C154.84 169.184 155.136 169.624 155.536 169.928C155.936 170.216 156.456 170.36 157.096 170.36C157.736 170.36 158.248 170.216 158.632 169.928C159.032 169.624 159.32 169.184 159.496 168.608C159.688 168.016 159.784 167.288 159.784 166.424C159.784 165.56 159.688 164.84 159.496 164.264C159.32 163.688 159.032 163.256 158.632 162.968C158.232 162.68 157.712 162.536 157.072 162.536C156.128 162.536 155.44 162.864 155.008 163.52C154.592 164.16 154.384 165.128 154.384 166.424ZM178.412 159.896V173H175.676L175.196 171.32H175.004C174.732 171.768 174.38 172.136 173.948 172.424C173.532 172.696 173.068 172.896 172.556 173.024C172.044 173.168 171.516 173.24 170.972 173.24C170.044 173.24 169.228 173.072 168.524 172.736C167.82 172.4 167.276 171.88 166.892 171.176C166.508 170.472 166.316 169.56 166.316 168.44V159.896H169.892V167.552C169.892 168.48 170.06 169.184 170.396 169.664C170.732 170.144 171.268 170.384 172.004 170.384C172.74 170.384 173.308 170.216 173.708 169.88C174.124 169.544 174.412 169.056 174.572 168.416C174.748 167.776 174.836 166.992 174.836 166.064V159.896H178.412ZM185.737 173H182.161V154.76H185.737V173ZM193.626 173.24C192.17 173.24 190.978 172.672 190.05 171.536C189.138 170.384 188.682 168.696 188.682 166.472C188.682 164.232 189.146 162.536 190.074 161.384C191.002 160.232 192.218 159.656 193.722 159.656C194.346 159.656 194.898 159.744 195.378 159.92C195.858 160.08 196.266 160.304 196.602 160.592C196.954 160.88 197.25 161.208 197.49 161.576H197.61C197.562 161.32 197.506 160.952 197.442 160.472C197.378 159.976 197.346 159.472 197.346 158.96V154.76H200.922V173H198.186L197.49 171.296H197.346C197.122 171.648 196.834 171.976 196.482 172.28C196.146 172.568 195.746 172.8 195.282 172.976C194.818 173.152 194.266 173.24 193.626 173.24ZM194.874 170.384C195.866 170.384 196.562 170.096 196.962 169.52C197.362 168.928 197.57 168.048 197.586 166.88V166.496C197.586 165.216 197.386 164.24 196.986 163.568C196.602 162.896 195.882 162.56 194.826 162.56C194.042 162.56 193.426 162.904 192.978 163.592C192.53 164.264 192.306 165.24 192.306 166.52C192.306 167.8 192.53 168.768 192.978 169.424C193.426 170.064 194.058 170.384 194.874 170.384ZM214.471 159.008C214.471 159.504 214.455 159.992 214.423 160.472C214.391 160.952 214.359 161.328 214.327 161.6H214.471C214.823 161.056 215.295 160.6 215.887 160.232C216.479 159.848 217.247 159.656 218.191 159.656C219.663 159.656 220.855 160.232 221.767 161.384C222.679 162.52 223.135 164.2 223.135 166.424C223.135 167.912 222.919 169.168 222.487 170.192C222.071 171.2 221.487 171.96 220.735 172.472C219.983 172.984 219.103 173.24 218.095 173.24C217.135 173.24 216.375 173.072 215.815 172.736C215.271 172.384 214.823 171.992 214.471 171.56H214.231L213.631 173H210.895V154.76H214.471V159.008ZM217.039 162.512C216.415 162.512 215.919 162.64 215.551 162.896C215.183 163.152 214.911 163.544 214.735 164.072C214.575 164.584 214.487 165.232 214.471 166.016V166.4C214.471 167.664 214.655 168.64 215.023 169.328C215.407 170 216.095 170.336 217.087 170.336C217.823 170.336 218.407 170 218.839 169.328C219.271 168.64 219.487 167.656 219.487 166.376C219.487 165.096 219.263 164.136 218.815 163.496C218.383 162.84 217.791 162.512 217.039 162.512ZM231.483 159.656C232.699 159.656 233.739 159.888 234.603 160.352C235.483 160.816 236.163 161.488 236.643 162.368C237.123 163.248 237.363 164.328 237.363 165.608V167.336H228.915C228.947 168.344 229.243 169.136 229.803 169.712C230.379 170.288 231.171 170.576 232.179 170.576C233.027 170.576 233.795 170.496 234.483 170.336C235.171 170.16 235.883 169.896 236.619 169.544V172.304C235.979 172.624 235.299 172.856 234.579 173C233.875 173.16 233.019 173.24 232.011 173.24C230.699 173.24 229.539 173 228.531 172.52C227.523 172.024 226.731 171.28 226.155 170.288C225.579 169.296 225.291 168.048 225.291 166.544C225.291 165.008 225.547 163.736 226.059 162.728C226.587 161.704 227.315 160.936 228.243 160.424C229.171 159.912 230.251 159.656 231.483 159.656ZM231.507 162.2C230.819 162.2 230.243 162.424 229.779 162.872C229.331 163.32 229.067 164.016 228.987 164.96H234.003C234.003 164.432 233.907 163.96 233.715 163.544C233.539 163.128 233.267 162.8 232.899 162.56C232.531 162.32 232.067 162.2 231.507 162.2ZM244.625 159.896H248.537L251.009 167.264C251.089 167.504 251.153 167.744 251.201 167.984C251.265 168.224 251.313 168.472 251.345 168.728C251.393 168.984 251.425 169.256 251.441 169.544H251.513C251.561 169.128 251.625 168.736 251.705 168.368C251.801 167.984 251.905 167.616 252.017 167.264L254.441 159.896H258.281L252.737 174.68C252.401 175.576 251.961 176.328 251.417 176.936C250.889 177.544 250.273 178 249.569 178.304C248.865 178.608 248.097 178.76 247.265 178.76C246.865 178.76 246.513 178.736 246.209 178.688C245.921 178.656 245.665 178.616 245.441 178.568V175.736C245.617 175.768 245.825 175.8 246.065 175.832C246.321 175.864 246.585 175.88 246.857 175.88C247.353 175.88 247.777 175.776 248.129 175.568C248.497 175.36 248.801 175.072 249.041 174.704C249.281 174.352 249.473 173.968 249.617 173.552L249.833 172.904L244.625 159.896ZM272.065 166.424C272.065 167.512 271.913 168.48 271.609 169.328C271.321 170.176 270.897 170.896 270.337 171.488C269.793 172.064 269.129 172.504 268.345 172.808C267.561 173.096 266.673 173.24 265.681 173.24C264.769 173.24 263.921 173.096 263.137 172.808C262.369 172.504 261.705 172.064 261.145 171.488C260.585 170.896 260.145 170.176 259.825 169.328C259.521 168.48 259.369 167.512 259.369 166.424C259.369 164.968 259.625 163.744 260.137 162.752C260.649 161.744 261.385 160.976 262.345 160.448C263.305 159.92 264.441 159.656 265.753 159.656C266.985 159.656 268.073 159.92 269.017 160.448C269.961 160.976 270.705 161.744 271.249 162.752C271.793 163.744 272.065 164.968 272.065 166.424ZM263.017 166.424C263.017 167.288 263.105 168.016 263.281 168.608C263.473 169.184 263.769 169.624 264.169 169.928C264.569 170.216 265.089 170.36 265.729 170.36C266.369 170.36 266.881 170.216 267.265 169.928C267.665 169.624 267.953 169.184 268.129 168.608C268.321 168.016 268.417 167.288 268.417 166.424C268.417 165.56 268.321 164.84 268.129 164.264C267.953 163.688 267.665 163.256 267.265 162.968C266.865 162.68 266.345 162.536 265.705 162.536C264.761 162.536 264.073 162.864 263.641 163.52C263.225 164.16 263.017 165.128 263.017 166.424ZM287.044 159.896V173H284.308L283.828 171.32H283.636C283.364 171.768 283.012 172.136 282.58 172.424C282.164 172.696 281.7 172.896 281.188 173.024C280.676 173.168 280.148 173.24 279.604 173.24C278.676 173.24 277.86 173.072 277.156 172.736C276.452 172.4 275.908 171.88 275.524 171.176C275.14 170.472 274.948 169.56 274.948 168.44V159.896H278.524V167.552C278.524 168.48 278.692 169.184 279.028 169.664C279.364 170.144 279.9 170.384 280.636 170.384C281.372 170.384 281.94 170.216 282.34 169.88C282.756 169.544 283.044 169.056 283.204 168.416C283.38 167.776 283.468 166.992 283.468 166.064V159.896H287.044ZM298.114 159.656C298.29 159.656 298.498 159.664 298.738 159.68C298.978 159.696 299.17 159.72 299.314 159.752L299.05 163.112C298.938 163.08 298.77 163.056 298.546 163.04C298.338 163.008 298.154 162.992 297.994 162.992C297.53 162.992 297.082 163.056 296.65 163.184C296.218 163.296 295.826 163.48 295.474 163.736C295.138 163.992 294.866 164.336 294.658 164.768C294.466 165.184 294.37 165.704 294.37 166.328V173H290.794V159.896H293.506L294.034 162.104H294.202C294.458 161.656 294.778 161.248 295.162 160.88C295.546 160.512 295.986 160.216 296.482 159.992C296.994 159.768 297.538 159.656 298.114 159.656ZM63.4571 197.656C64.9291 197.656 66.1211 198.232 67.0331 199.384C67.9451 200.52 68.4011 202.2 68.4011 204.424C68.4011 205.912 68.1851 207.168 67.7531 208.192C67.3211 209.2 66.7291 209.96 65.9771 210.472C65.2251 210.984 64.3531 211.24 63.3611 211.24C62.7371 211.24 62.1931 211.16 61.7291 211C61.2811 210.84 60.8971 210.632 60.5771 210.376C60.2571 210.12 59.9771 209.848 59.7371 209.56H59.5451C59.6091 209.864 59.6571 210.184 59.6891 210.52C59.7211 210.84 59.7371 211.16 59.7371 211.48V216.76H56.1611V197.896H59.0651L59.5691 199.6H59.7371C59.9771 199.248 60.2651 198.928 60.6011 198.64C60.9371 198.336 61.3371 198.096 61.8011 197.92C62.2811 197.744 62.8331 197.656 63.4571 197.656ZM62.3051 200.512C61.6811 200.512 61.1851 200.64 60.8171 200.896C60.4491 201.152 60.1771 201.544 60.0011 202.072C59.8411 202.584 59.7531 203.232 59.7371 204.016V204.4C59.7371 205.248 59.8171 205.968 59.9771 206.56C60.1371 207.136 60.4091 207.576 60.7931 207.88C61.1771 208.184 61.6971 208.336 62.3531 208.336C62.8971 208.336 63.3451 208.184 63.6971 207.88C64.0491 207.576 64.3131 207.128 64.4891 206.536C64.6651 205.944 64.7531 205.224 64.7531 204.376C64.7531 203.096 64.5531 202.136 64.1531 201.496C63.7691 200.84 63.1531 200.512 62.3051 200.512ZM78.6686 197.656C78.8446 197.656 79.0526 197.664 79.2926 197.68C79.5326 197.696 79.7246 197.72 79.8686 197.752L79.6046 201.112C79.4926 201.08 79.3246 201.056 79.1006 201.04C78.8926 201.008 78.7086 200.992 78.5486 200.992C78.0846 200.992 77.6366 201.056 77.2046 201.184C76.7726 201.296 76.3806 201.48 76.0286 201.736C75.6926 201.992 75.4206 202.336 75.2126 202.768C75.0206 203.184 74.9246 203.704 74.9246 204.328V211H71.3486V197.896H74.0606L74.5886 200.104H74.7566C75.0126 199.656 75.3326 199.248 75.7166 198.88C76.1006 198.512 76.5406 198.216 77.0366 197.992C77.5486 197.768 78.0926 197.656 78.6686 197.656ZM93.6823 204.424C93.6823 205.512 93.5303 206.48 93.2263 207.328C92.9383 208.176 92.5143 208.896 91.9543 209.488C91.4103 210.064 90.7463 210.504 89.9623 210.808C89.1783 211.096 88.2903 211.24 87.2983 211.24C86.3863 211.24 85.5383 211.096 84.7543 210.808C83.9863 210.504 83.3223 210.064 82.7623 209.488C82.2023 208.896 81.7623 208.176 81.4423 207.328C81.1383 206.48 80.9863 205.512 80.9863 204.424C80.9863 202.968 81.2423 201.744 81.7543 200.752C82.2663 199.744 83.0023 198.976 83.9623 198.448C84.9223 197.92 86.0583 197.656 87.3703 197.656C88.6023 197.656 89.6903 197.92 90.6343 198.448C91.5783 198.976 92.3223 199.744 92.8663 200.752C93.4103 201.744 93.6823 202.968 93.6823 204.424ZM84.6343 204.424C84.6343 205.288 84.7223 206.016 84.8983 206.608C85.0903 207.184 85.3863 207.624 85.7863 207.928C86.1863 208.216 86.7063 208.36 87.3463 208.36C87.9863 208.36 88.4983 208.216 88.8823 207.928C89.2823 207.624 89.5703 207.184 89.7463 206.608C89.9383 206.016 90.0343 205.288 90.0343 204.424C90.0343 203.56 89.9383 202.84 89.7463 202.264C89.5703 201.688 89.2823 201.256 88.8823 200.968C88.4823 200.68 87.9623 200.536 87.3223 200.536C86.3783 200.536 85.6903 200.864 85.2583 201.52C84.8423 202.16 84.6343 203.128 84.6343 204.424ZM95.5816 216.76C95.1816 216.76 94.7656 216.728 94.3336 216.664C93.8856 216.616 93.5176 216.552 93.2296 216.472V213.664C93.5176 213.728 93.7896 213.776 94.0456 213.808C94.3016 213.856 94.5896 213.88 94.9096 213.88C95.3896 213.88 95.7976 213.744 96.1336 213.472C96.4696 213.2 96.6376 212.672 96.6376 211.888V197.896H100.214V212.416C100.214 213.216 100.062 213.944 99.7576 214.6C99.4536 215.256 98.9576 215.776 98.2696 216.16C97.5976 216.56 96.7016 216.76 95.5816 216.76ZM96.4936 194.512C96.4936 193.84 96.6776 193.384 97.0456 193.144C97.4296 192.888 97.8936 192.76 98.4376 192.76C98.9656 192.76 99.4216 192.888 99.8056 193.144C100.19 193.384 100.382 193.84 100.382 194.512C100.382 195.168 100.19 195.624 99.8056 195.88C99.4216 196.136 98.9656 196.264 98.4376 196.264C97.8936 196.264 97.4296 196.136 97.0456 195.88C96.6776 195.624 96.4936 195.168 96.4936 194.512ZM109.35 197.656C110.566 197.656 111.606 197.888 112.47 198.352C113.35 198.816 114.03 199.488 114.51 200.368C114.99 201.248 115.23 202.328 115.23 203.608V205.336H106.782C106.814 206.344 107.11 207.136 107.67 207.712C108.246 208.288 109.038 208.576 110.046 208.576C110.894 208.576 111.662 208.496 112.35 208.336C113.038 208.16 113.75 207.896 114.486 207.544V210.304C113.846 210.624 113.166 210.856 112.446 211C111.742 211.16 110.886 211.24 109.878 211.24C108.566 211.24 107.406 211 106.398 210.52C105.39 210.024 104.598 209.28 104.022 208.288C103.446 207.296 103.158 206.048 103.158 204.544C103.158 203.008 103.414 201.736 103.926 200.728C104.454 199.704 105.182 198.936 106.11 198.424C107.038 197.912 108.118 197.656 109.35 197.656ZM109.374 200.2C108.686 200.2 108.11 200.424 107.646 200.872C107.198 201.32 106.934 202.016 106.854 202.96H111.87C111.87 202.432 111.774 201.96 111.582 201.544C111.406 201.128 111.134 200.8 110.766 200.56C110.398 200.32 109.934 200.2 109.374 200.2ZM123.458 211.24C122.162 211.24 121.058 211.008 120.146 210.544C119.234 210.064 118.538 209.328 118.058 208.336C117.578 207.344 117.338 206.072 117.338 204.52C117.338 202.92 117.61 201.616 118.154 200.608C118.698 199.6 119.45 198.856 120.41 198.376C121.386 197.896 122.506 197.656 123.77 197.656C124.666 197.656 125.442 197.744 126.098 197.92C126.77 198.096 127.354 198.304 127.85 198.544L126.794 201.304C126.234 201.08 125.706 200.896 125.21 200.752C124.73 200.608 124.25 200.536 123.77 200.536C123.146 200.536 122.626 200.688 122.21 200.992C121.794 201.28 121.482 201.72 121.274 202.312C121.082 202.888 120.986 203.616 120.986 204.496C120.986 205.36 121.09 206.08 121.298 206.656C121.522 207.216 121.842 207.64 122.258 207.928C122.674 208.2 123.178 208.336 123.77 208.336C124.522 208.336 125.186 208.24 125.762 208.048C126.338 207.84 126.898 207.56 127.442 207.208V210.256C126.898 210.608 126.322 210.856 125.714 211C125.122 211.16 124.37 211.24 123.458 211.24ZM135.978 208.384C136.378 208.384 136.762 208.344 137.13 208.264C137.498 208.184 137.866 208.088 138.234 207.976V210.64C137.85 210.8 137.37 210.936 136.794 211.048C136.234 211.176 135.618 211.24 134.946 211.24C134.162 211.24 133.458 211.112 132.834 210.856C132.226 210.6 131.738 210.16 131.37 209.536C131.018 208.896 130.842 208.016 130.842 206.896V200.584H129.138V199.072L131.106 197.872L132.138 195.112H134.418V197.896H138.09V200.584H134.418V206.896C134.418 207.392 134.562 207.768 134.85 208.024C135.138 208.264 135.514 208.384 135.978 208.384ZM152.475 197.632C154.235 197.632 155.579 198.016 156.507 198.784C157.451 199.536 157.923 200.696 157.923 202.264V211H155.427L154.731 209.224H154.635C154.267 209.688 153.883 210.072 153.483 210.376C153.099 210.68 152.651 210.896 152.139 211.024C151.643 211.168 151.027 211.24 150.291 211.24C149.523 211.24 148.827 211.096 148.203 210.808C147.595 210.504 147.115 210.048 146.763 209.44C146.411 208.816 146.235 208.032 146.235 207.088C146.235 205.696 146.723 204.672 147.699 204.016C148.675 203.344 150.139 202.976 152.091 202.912L154.371 202.84V202.264C154.371 201.576 154.187 201.072 153.819 200.752C153.467 200.432 152.971 200.272 152.331 200.272C151.691 200.272 151.067 200.368 150.459 200.56C149.851 200.736 149.243 200.96 148.635 201.232L147.459 198.808C148.163 198.44 148.939 198.152 149.787 197.944C150.651 197.736 151.547 197.632 152.475 197.632ZM152.979 204.976C151.827 205.008 151.027 205.216 150.579 205.6C150.131 205.984 149.907 206.488 149.907 207.112C149.907 207.656 150.067 208.048 150.387 208.288C150.707 208.512 151.123 208.624 151.635 208.624C152.403 208.624 153.051 208.4 153.579 207.952C154.107 207.488 154.371 206.84 154.371 206.008V204.928L152.979 204.976ZM170.727 207.112C170.727 207.992 170.519 208.744 170.103 209.368C169.687 209.976 169.063 210.44 168.231 210.76C167.399 211.08 166.367 211.24 165.135 211.24C164.223 211.24 163.439 211.176 162.783 211.048C162.127 210.936 161.471 210.744 160.815 210.472V207.52C161.519 207.84 162.279 208.104 163.095 208.312C163.911 208.52 164.631 208.624 165.255 208.624C165.959 208.624 166.455 208.52 166.743 208.312C167.047 208.104 167.199 207.832 167.199 207.496C167.199 207.272 167.135 207.072 167.007 206.896C166.895 206.72 166.639 206.52 166.239 206.296C165.839 206.072 165.215 205.784 164.367 205.432C163.551 205.08 162.879 204.736 162.351 204.4C161.823 204.048 161.431 203.632 161.175 203.152C160.919 202.656 160.791 202.04 160.791 201.304C160.791 200.088 161.263 199.176 162.207 198.568C163.151 197.96 164.407 197.656 165.975 197.656C166.791 197.656 167.567 197.736 168.303 197.896C169.039 198.056 169.799 198.32 170.583 198.688L169.503 201.256C169.071 201.064 168.655 200.896 168.255 200.752C167.855 200.608 167.463 200.496 167.079 200.416C166.711 200.336 166.327 200.296 165.927 200.296C165.399 200.296 164.999 200.368 164.727 200.512C164.471 200.656 164.343 200.872 164.343 201.16C164.343 201.368 164.407 201.56 164.535 201.736C164.679 201.896 164.943 202.072 165.327 202.264C165.727 202.456 166.311 202.712 167.079 203.032C167.831 203.336 168.479 203.656 169.023 203.992C169.567 204.312 169.983 204.72 170.271 205.216C170.575 205.696 170.727 206.328 170.727 207.112ZM185.123 197.632C186.883 197.632 188.227 198.016 189.155 198.784C190.099 199.536 190.571 200.696 190.571 202.264V211H188.075L187.379 209.224H187.283C186.915 209.688 186.531 210.072 186.131 210.376C185.747 210.68 185.299 210.896 184.787 211.024C184.291 211.168 183.675 211.24 182.939 211.24C182.171 211.24 181.475 211.096 180.851 210.808C180.243 210.504 179.763 210.048 179.411 209.44C179.059 208.816 178.883 208.032 178.883 207.088C178.883 205.696 179.371 204.672 180.347 204.016C181.323 203.344 182.787 202.976 184.739 202.912L187.019 202.84V202.264C187.019 201.576 186.835 201.072 186.467 200.752C186.115 200.432 185.619 200.272 184.979 200.272C184.339 200.272 183.715 200.368 183.107 200.56C182.499 200.736 181.891 200.96 181.283 201.232L180.107 198.808C180.811 198.44 181.587 198.152 182.435 197.944C183.299 197.736 184.195 197.632 185.123 197.632ZM185.627 204.976C184.475 205.008 183.675 205.216 183.227 205.6C182.779 205.984 182.555 206.488 182.555 207.112C182.555 207.656 182.715 208.048 183.035 208.288C183.355 208.512 183.771 208.624 184.283 208.624C185.051 208.624 185.699 208.4 186.227 207.952C186.755 207.488 187.019 206.84 187.019 206.008V204.928L185.627 204.976ZM207.762 197.656C209.234 197.656 210.426 198.232 211.338 199.384C212.25 200.52 212.706 202.2 212.706 204.424C212.706 205.912 212.49 207.168 212.058 208.192C211.626 209.2 211.034 209.96 210.282 210.472C209.53 210.984 208.658 211.24 207.666 211.24C207.042 211.24 206.498 211.16 206.034 211C205.586 210.84 205.202 210.632 204.882 210.376C204.562 210.12 204.282 209.848 204.042 209.56H203.85C203.914 209.864 203.962 210.184 203.994 210.52C204.026 210.84 204.042 211.16 204.042 211.48V216.76H200.466V197.896H203.37L203.874 199.6H204.042C204.282 199.248 204.57 198.928 204.906 198.64C205.242 198.336 205.642 198.096 206.106 197.92C206.586 197.744 207.138 197.656 207.762 197.656ZM206.61 200.512C205.986 200.512 205.49 200.64 205.122 200.896C204.754 201.152 204.482 201.544 204.306 202.072C204.146 202.584 204.058 203.232 204.042 204.016V204.4C204.042 205.248 204.122 205.968 204.282 206.56C204.442 207.136 204.714 207.576 205.098 207.88C205.482 208.184 206.002 208.336 206.658 208.336C207.202 208.336 207.65 208.184 208.002 207.88C208.354 207.576 208.618 207.128 208.794 206.536C208.97 205.944 209.058 205.224 209.058 204.376C209.058 203.096 208.858 202.136 208.458 201.496C208.074 200.84 207.458 200.512 206.61 200.512ZM221.029 197.632C222.789 197.632 224.133 198.016 225.061 198.784C226.005 199.536 226.477 200.696 226.477 202.264V211H223.981L223.285 209.224H223.189C222.821 209.688 222.437 210.072 222.037 210.376C221.653 210.68 221.205 210.896 220.693 211.024C220.197 211.168 219.581 211.24 218.845 211.24C218.077 211.24 217.381 211.096 216.757 210.808C216.149 210.504 215.669 210.048 215.317 209.44C214.965 208.816 214.789 208.032 214.789 207.088C214.789 205.696 215.277 204.672 216.253 204.016C217.229 203.344 218.693 202.976 220.645 202.912L222.925 202.84V202.264C222.925 201.576 222.741 201.072 222.373 200.752C222.021 200.432 221.525 200.272 220.885 200.272C220.245 200.272 219.621 200.368 219.013 200.56C218.405 200.736 217.797 200.96 217.189 201.232L216.013 198.808C216.717 198.44 217.493 198.152 218.341 197.944C219.205 197.736 220.101 197.632 221.029 197.632ZM221.533 204.976C220.381 205.008 219.581 205.216 219.133 205.6C218.685 205.984 218.461 206.488 218.461 207.112C218.461 207.656 218.621 208.048 218.941 208.288C219.261 208.512 219.677 208.624 220.189 208.624C220.957 208.624 221.605 208.4 222.133 207.952C222.661 207.488 222.925 206.84 222.925 206.008V204.928L221.533 204.976ZM237.458 197.656C237.634 197.656 237.842 197.664 238.082 197.68C238.322 197.696 238.514 197.72 238.658 197.752L238.394 201.112C238.282 201.08 238.114 201.056 237.89 201.04C237.682 201.008 237.498 200.992 237.338 200.992C236.874 200.992 236.426 201.056 235.994 201.184C235.562 201.296 235.17 201.48 234.818 201.736C234.482 201.992 234.21 202.336 234.002 202.768C233.81 203.184 233.714 203.704 233.714 204.328V211H230.138V197.896H232.85L233.378 200.104H233.546C233.802 199.656 234.122 199.248 234.506 198.88C234.89 198.512 235.33 198.216 235.826 197.992C236.338 197.768 236.882 197.656 237.458 197.656ZM246.556 208.384C246.956 208.384 247.34 208.344 247.708 208.264C248.076 208.184 248.444 208.088 248.812 207.976V210.64C248.428 210.8 247.948 210.936 247.372 211.048C246.812 211.176 246.196 211.24 245.524 211.24C244.74 211.24 244.036 211.112 243.412 210.856C242.804 210.6 242.316 210.16 241.948 209.536C241.596 208.896 241.42 208.016 241.42 206.896V200.584H239.716V199.072L241.684 197.872L242.716 195.112H244.996V197.896H248.668V200.584H244.996V206.896C244.996 207.392 245.14 207.768 245.428 208.024C245.716 208.264 246.092 208.384 246.556 208.384ZM269.581 204.424C269.581 205.512 269.429 206.48 269.125 207.328C268.837 208.176 268.413 208.896 267.853 209.488C267.309 210.064 266.645 210.504 265.861 210.808C265.077 211.096 264.189 211.24 263.197 211.24C262.285 211.24 261.437 211.096 260.653 210.808C259.885 210.504 259.221 210.064 258.661 209.488C258.101 208.896 257.661 208.176 257.341 207.328C257.037 206.48 256.885 205.512 256.885 204.424C256.885 202.968 257.141 201.744 257.653 200.752C258.165 199.744 258.901 198.976 259.861 198.448C260.821 197.92 261.957 197.656 263.269 197.656C264.501 197.656 265.589 197.92 266.533 198.448C267.477 198.976 268.221 199.744 268.765 200.752C269.309 201.744 269.581 202.968 269.581 204.424ZM260.533 204.424C260.533 205.288 260.621 206.016 260.797 206.608C260.989 207.184 261.285 207.624 261.685 207.928C262.085 208.216 262.605 208.36 263.245 208.36C263.885 208.36 264.397 208.216 264.781 207.928C265.181 207.624 265.469 207.184 265.645 206.608C265.837 206.016 265.933 205.288 265.933 204.424C265.933 203.56 265.837 202.84 265.645 202.264C265.469 201.688 265.181 201.256 264.781 200.968C264.381 200.68 263.861 200.536 263.221 200.536C262.277 200.536 261.589 200.864 261.157 201.52C260.741 202.16 260.533 203.128 260.533 204.424ZM279.784 200.584H276.688V211H273.112V200.584H271.144V198.856L273.112 197.896V196.936C273.112 195.816 273.296 194.952 273.664 194.344C274.048 193.72 274.584 193.28 275.272 193.024C275.976 192.768 276.8 192.64 277.744 192.64C278.448 192.64 279.08 192.696 279.64 192.808C280.216 192.92 280.68 193.048 281.032 193.192L280.12 195.808C279.848 195.728 279.552 195.656 279.232 195.592C278.912 195.512 278.544 195.472 278.128 195.472C277.632 195.472 277.264 195.624 277.024 195.928C276.8 196.232 276.688 196.616 276.688 197.08V197.896H279.784V200.584ZM299.956 204.424C299.956 205.512 299.804 206.48 299.5 207.328C299.212 208.176 298.788 208.896 298.228 209.488C297.684 210.064 297.02 210.504 296.236 210.808C295.452 211.096 294.564 211.24 293.572 211.24C292.66 211.24 291.812 211.096 291.028 210.808C290.26 210.504 289.596 210.064 289.036 209.488C288.476 208.896 288.036 208.176 287.716 207.328C287.412 206.48 287.26 205.512 287.26 204.424C287.26 202.968 287.516 201.744 288.028 200.752C288.54 199.744 289.276 198.976 290.236 198.448C291.196 197.92 292.332 197.656 293.644 197.656C294.876 197.656 295.964 197.92 296.908 198.448C297.852 198.976 298.596 199.744 299.14 200.752C299.684 201.744 299.956 202.968 299.956 204.424ZM290.908 204.424C290.908 205.288 290.996 206.016 291.172 206.608C291.364 207.184 291.66 207.624 292.06 207.928C292.46 208.216 292.98 208.36 293.62 208.36C294.26 208.36 294.772 208.216 295.156 207.928C295.556 207.624 295.844 207.184 296.02 206.608C296.212 206.016 296.308 205.288 296.308 204.424C296.308 203.56 296.212 202.84 296.02 202.264C295.844 201.688 295.556 201.256 295.156 200.968C294.756 200.68 294.236 200.536 293.596 200.536C292.652 200.536 291.964 200.864 291.532 201.52C291.116 202.16 290.908 203.128 290.908 204.424ZM314.935 197.896V211H312.199L311.719 209.32H311.527C311.255 209.768 310.903 210.136 310.471 210.424C310.055 210.696 309.591 210.896 309.079 211.024C308.567 211.168 308.039 211.24 307.495 211.24C306.567 211.24 305.751 211.072 305.047 210.736C304.343 210.4 303.799 209.88 303.415 209.176C303.031 208.472 302.839 207.56 302.839 206.44V197.896H306.415V205.552C306.415 206.48 306.583 207.184 306.919 207.664C307.255 208.144 307.791 208.384 308.527 208.384C309.263 208.384 309.831 208.216 310.231 207.88C310.647 207.544 310.935 207.056 311.095 206.416C311.271 205.776 311.359 204.992 311.359 204.064V197.896H314.935ZM326.005 197.656C326.181 197.656 326.389 197.664 326.629 197.68C326.869 197.696 327.061 197.72 327.205 197.752L326.941 201.112C326.829 201.08 326.661 201.056 326.437 201.04C326.229 201.008 326.045 200.992 325.885 200.992C325.421 200.992 324.973 201.056 324.541 201.184C324.109 201.296 323.717 201.48 323.365 201.736C323.029 201.992 322.757 202.336 322.549 202.768C322.357 203.184 322.261 203.704 322.261 204.328V211H318.685V197.896H321.397L321.925 200.104H322.093C322.349 199.656 322.669 199.248 323.053 198.88C323.437 198.512 323.877 198.216 324.373 197.992C324.885 197.768 325.429 197.656 326.005 197.656ZM89.7558 235.632C91.5158 235.632 92.8598 236.016 93.7878 236.784C94.7318 237.536 95.2038 238.696 95.2038 240.264V249H92.7078L92.0118 247.224H91.9158C91.5478 247.688 91.1638 248.072 90.7638 248.376C90.3798 248.68 89.9318 248.896 89.4198 249.024C88.9238 249.168 88.3078 249.24 87.5718 249.24C86.8038 249.24 86.1078 249.096 85.4838 248.808C84.8758 248.504 84.3958 248.048 84.0438 247.44C83.6918 246.816 83.5158 246.032 83.5158 245.088C83.5158 243.696 84.0038 242.672 84.9798 242.016C85.9558 241.344 87.4198 240.976 89.3718 240.912L91.6518 240.84V240.264C91.6518 239.576 91.4678 239.072 91.0998 238.752C90.7478 238.432 90.2518 238.272 89.6118 238.272C88.9718 238.272 88.3478 238.368 87.7398 238.56C87.1318 238.736 86.5238 238.96 85.9158 239.232L84.7398 236.808C85.4438 236.44 86.2198 236.152 87.0678 235.944C87.9318 235.736 88.8278 235.632 89.7558 235.632ZM90.2598 242.976C89.1078 243.008 88.3078 243.216 87.8598 243.6C87.4118 243.984 87.1878 244.488 87.1878 245.112C87.1878 245.656 87.3478 246.048 87.6678 246.288C87.9878 246.512 88.4038 246.624 88.9158 246.624C89.6838 246.624 90.3318 246.4 90.8598 245.952C91.3878 245.488 91.6518 244.84 91.6518 244.008V242.928L90.2598 242.976ZM114.248 235.656C115.736 235.656 116.856 236.04 117.608 236.808C118.376 237.56 118.76 238.776 118.76 240.456V249H115.184V241.344C115.184 240.4 115.024 239.696 114.704 239.232C114.384 238.752 113.888 238.512 113.216 238.512C112.272 238.512 111.6 238.848 111.2 239.52C110.8 240.192 110.6 241.16 110.6 242.424V249H107.024V241.344C107.024 240.72 106.952 240.2 106.808 239.784C106.664 239.368 106.448 239.056 106.16 238.848C105.872 238.624 105.504 238.512 105.056 238.512C104.4 238.512 103.88 238.68 103.496 239.016C103.112 239.352 102.84 239.84 102.68 240.48C102.52 241.12 102.44 241.904 102.44 242.832V249H98.8642V235.896H101.6L102.08 237.576H102.272C102.544 237.128 102.88 236.768 103.28 236.496C103.68 236.208 104.12 236 104.6 235.872C105.096 235.728 105.592 235.656 106.088 235.656C107.048 235.656 107.864 235.816 108.536 236.136C109.208 236.44 109.72 236.92 110.072 237.576H110.384C110.784 236.904 111.336 236.416 112.04 236.112C112.76 235.808 113.496 235.656 114.248 235.656ZM127.818 235.632C129.578 235.632 130.922 236.016 131.85 236.784C132.794 237.536 133.266 238.696 133.266 240.264V249H130.77L130.074 247.224H129.978C129.61 247.688 129.226 248.072 128.826 248.376C128.442 248.68 127.994 248.896 127.482 249.024C126.986 249.168 126.37 249.24 125.634 249.24C124.866 249.24 124.17 249.096 123.546 248.808C122.938 248.504 122.458 248.048 122.106 247.44C121.754 246.816 121.578 246.032 121.578 245.088C121.578 243.696 122.066 242.672 123.042 242.016C124.018 241.344 125.482 240.976 127.434 240.912L129.714 240.84V240.264C129.714 239.576 129.53 239.072 129.162 238.752C128.81 238.432 128.314 238.272 127.674 238.272C127.034 238.272 126.41 238.368 125.802 238.56C125.194 238.736 124.586 238.96 123.978 239.232L122.802 236.808C123.506 236.44 124.282 236.152 125.13 235.944C125.994 235.736 126.89 235.632 127.818 235.632ZM128.322 242.976C127.17 243.008 126.37 243.216 125.922 243.6C125.474 243.984 125.25 244.488 125.25 245.112C125.25 245.656 125.41 246.048 125.73 246.288C126.05 246.512 126.466 246.624 126.978 246.624C127.746 246.624 128.394 246.4 128.922 245.952C129.45 245.488 129.714 244.84 129.714 244.008V242.928L128.322 242.976ZM146.047 249H135.703V246.888L141.775 238.632H136.063V235.896H145.831V238.224L139.927 246.264H146.047V249ZM152.221 235.896V249H148.645V235.896H152.221ZM150.445 230.76C150.973 230.76 151.429 230.888 151.813 231.144C152.197 231.384 152.389 231.84 152.389 232.512C152.389 233.168 152.197 233.624 151.813 233.88C151.429 234.136 150.973 234.264 150.445 234.264C149.901 234.264 149.437 234.136 149.053 233.88C148.685 233.624 148.501 233.168 148.501 232.512C148.501 231.84 148.685 231.384 149.053 231.144C149.437 230.888 149.901 230.76 150.445 230.76ZM163.398 235.656C164.806 235.656 165.934 236.04 166.782 236.808C167.63 237.56 168.054 238.776 168.054 240.456V249H164.478V241.344C164.478 240.4 164.31 239.696 163.974 239.232C163.638 238.752 163.102 238.512 162.366 238.512C161.278 238.512 160.534 238.888 160.134 239.64C159.734 240.376 159.534 241.44 159.534 242.832V249H155.958V235.896H158.694L159.174 237.576H159.366C159.654 237.128 160.006 236.768 160.422 236.496C160.838 236.208 161.302 236 161.814 235.872C162.326 235.728 162.854 235.656 163.398 235.656ZM175.979 235.656C176.779 235.656 177.499 235.816 178.139 236.136C178.779 236.456 179.323 236.936 179.771 237.576H179.867L180.155 235.896H183.179V249.024C183.179 250.272 182.931 251.32 182.435 252.168C181.955 253.016 181.227 253.656 180.251 254.088C179.275 254.536 178.067 254.76 176.627 254.76C175.699 254.76 174.835 254.704 174.035 254.592C173.251 254.48 172.483 254.28 171.731 253.992V251.136C172.275 251.36 172.819 251.544 173.363 251.688C173.923 251.848 174.491 251.96 175.067 252.024C175.659 252.104 176.251 252.144 176.843 252.144C177.771 252.144 178.459 251.896 178.907 251.4C179.371 250.904 179.603 250.16 179.603 249.168V248.904C179.603 248.632 179.611 248.352 179.627 248.064C179.659 247.776 179.683 247.52 179.699 247.296H179.603C179.155 247.984 178.619 248.48 177.995 248.784C177.371 249.088 176.667 249.24 175.883 249.24C174.331 249.24 173.115 248.648 172.235 247.464C171.371 246.264 170.939 244.6 170.939 242.472C170.939 241.032 171.139 239.808 171.539 238.8C171.939 237.776 172.515 237 173.267 236.472C174.035 235.928 174.939 235.656 175.979 235.656ZM177.107 238.56C176.547 238.56 176.075 238.712 175.691 239.016C175.323 239.304 175.043 239.744 174.851 240.336C174.675 240.912 174.587 241.64 174.587 242.52C174.587 243.832 174.795 244.816 175.211 245.472C175.627 246.112 176.275 246.432 177.155 246.432C177.619 246.432 178.019 246.376 178.355 246.264C178.691 246.136 178.963 245.936 179.171 245.664C179.395 245.376 179.563 245.008 179.675 244.56C179.787 244.112 179.843 243.568 179.843 242.928V242.496C179.843 241.552 179.747 240.792 179.555 240.216C179.363 239.64 179.067 239.224 178.667 238.968C178.267 238.696 177.747 238.56 177.107 238.56ZM198.481 249.24C197.185 249.24 196.081 249.008 195.169 248.544C194.257 248.064 193.561 247.328 193.081 246.336C192.601 245.344 192.361 244.072 192.361 242.52C192.361 240.92 192.633 239.616 193.177 238.608C193.721 237.6 194.473 236.856 195.433 236.376C196.409 235.896 197.529 235.656 198.793 235.656C199.689 235.656 200.465 235.744 201.121 235.92C201.793 236.096 202.377 236.304 202.873 236.544L201.817 239.304C201.257 239.08 200.729 238.896 200.233 238.752C199.753 238.608 199.273 238.536 198.793 238.536C198.169 238.536 197.649 238.688 197.233 238.992C196.817 239.28 196.505 239.72 196.297 240.312C196.105 240.888 196.009 241.616 196.009 242.496C196.009 243.36 196.113 244.08 196.321 244.656C196.545 245.216 196.865 245.64 197.281 245.928C197.697 246.2 198.201 246.336 198.793 246.336C199.545 246.336 200.209 246.24 200.785 246.048C201.361 245.84 201.921 245.56 202.465 245.208V248.256C201.921 248.608 201.345 248.856 200.737 249C200.145 249.16 199.393 249.24 198.481 249.24ZM217.505 235.896V249H214.769L214.289 247.32H214.097C213.825 247.768 213.473 248.136 213.041 248.424C212.625 248.696 212.161 248.896 211.649 249.024C211.137 249.168 210.609 249.24 210.065 249.24C209.137 249.24 208.321 249.072 207.617 248.736C206.913 248.4 206.369 247.88 205.985 247.176C205.601 246.472 205.409 245.56 205.409 244.44V235.896H208.985V243.552C208.985 244.48 209.153 245.184 209.489 245.664C209.825 246.144 210.361 246.384 211.097 246.384C211.833 246.384 212.401 246.216 212.801 245.88C213.217 245.544 213.505 245.056 213.665 244.416C213.841 243.776 213.929 242.992 213.929 242.064V235.896H217.505ZM228.575 235.656C228.751 235.656 228.959 235.664 229.199 235.68C229.439 235.696 229.631 235.72 229.775 235.752L229.511 239.112C229.399 239.08 229.231 239.056 229.007 239.04C228.799 239.008 228.615 238.992 228.455 238.992C227.991 238.992 227.543 239.056 227.111 239.184C226.679 239.296 226.287 239.48 225.935 239.736C225.599 239.992 225.327 240.336 225.119 240.768C224.927 241.184 224.831 241.704 224.831 242.328V249H221.255V235.896H223.967L224.495 238.104H224.663C224.919 237.656 225.239 237.248 225.623 236.88C226.007 236.512 226.447 236.216 226.943 235.992C227.455 235.768 227.999 235.656 228.575 235.656ZM237.061 235.632C238.821 235.632 240.165 236.016 241.093 236.784C242.037 237.536 242.509 238.696 242.509 240.264V249H240.013L239.317 247.224H239.221C238.853 247.688 238.469 248.072 238.069 248.376C237.685 248.68 237.237 248.896 236.725 249.024C236.229 249.168 235.613 249.24 234.877 249.24C234.109 249.24 233.413 249.096 232.789 248.808C232.181 248.504 231.701 248.048 231.349 247.44C230.997 246.816 230.821 246.032 230.821 245.088C230.821 243.696 231.309 242.672 232.285 242.016C233.261 241.344 234.725 240.976 236.677 240.912L238.957 240.84V240.264C238.957 239.576 238.773 239.072 238.405 238.752C238.053 238.432 237.557 238.272 236.917 238.272C236.277 238.272 235.653 238.368 235.045 238.56C234.437 238.736 233.829 238.96 233.221 239.232L232.045 236.808C232.749 236.44 233.525 236.152 234.373 235.944C235.237 235.736 236.133 235.632 237.061 235.632ZM237.565 242.976C236.413 243.008 235.613 243.216 235.165 243.6C234.717 243.984 234.493 244.488 234.493 245.112C234.493 245.656 234.653 246.048 234.973 246.288C235.293 246.512 235.709 246.624 236.221 246.624C236.989 246.624 237.637 246.4 238.165 245.952C238.693 245.488 238.957 244.84 238.957 244.008V242.928L237.565 242.976ZM251.689 246.384C252.089 246.384 252.473 246.344 252.841 246.264C253.209 246.184 253.577 246.088 253.945 245.976V248.64C253.561 248.8 253.081 248.936 252.505 249.048C251.945 249.176 251.329 249.24 250.657 249.24C249.873 249.24 249.169 249.112 248.545 248.856C247.937 248.6 247.449 248.16 247.081 247.536C246.729 246.896 246.553 246.016 246.553 244.896V238.584H244.849V237.072L246.817 235.872L247.849 233.112H250.129V235.896H253.801V238.584H250.129V244.896C250.129 245.392 250.273 245.768 250.561 246.024C250.849 246.264 251.225 246.384 251.689 246.384ZM260.151 235.896V249H256.575V235.896H260.151ZM258.375 230.76C258.903 230.76 259.359 230.888 259.743 231.144C260.127 231.384 260.319 231.84 260.319 232.512C260.319 233.168 260.127 233.624 259.743 233.88C259.359 234.136 258.903 234.264 258.375 234.264C257.831 234.264 257.367 234.136 256.983 233.88C256.615 233.624 256.431 233.168 256.431 232.512C256.431 231.84 256.615 231.384 256.983 231.144C257.367 230.888 257.831 230.76 258.375 230.76ZM275.792 242.424C275.792 243.512 275.64 244.48 275.336 245.328C275.048 246.176 274.624 246.896 274.064 247.488C273.52 248.064 272.856 248.504 272.072 248.808C271.288 249.096 270.4 249.24 269.408 249.24C268.496 249.24 267.648 249.096 266.864 248.808C266.096 248.504 265.432 248.064 264.872 247.488C264.312 246.896 263.872 246.176 263.552 245.328C263.248 244.48 263.096 243.512 263.096 242.424C263.096 240.968 263.352 239.744 263.864 238.752C264.376 237.744 265.112 236.976 266.072 236.448C267.032 235.92 268.168 235.656 269.48 235.656C270.712 235.656 271.8 235.92 272.744 236.448C273.688 236.976 274.432 237.744 274.976 238.752C275.52 239.744 275.792 240.968 275.792 242.424ZM266.744 242.424C266.744 243.288 266.832 244.016 267.008 244.608C267.2 245.184 267.496 245.624 267.896 245.928C268.296 246.216 268.816 246.36 269.456 246.36C270.096 246.36 270.608 246.216 270.992 245.928C271.392 245.624 271.68 245.184 271.856 244.608C272.048 244.016 272.144 243.288 272.144 242.424C272.144 241.56 272.048 240.84 271.856 240.264C271.68 239.688 271.392 239.256 270.992 238.968C270.592 238.68 270.072 238.536 269.432 238.536C268.488 238.536 267.8 238.864 267.368 239.52C266.952 240.16 266.744 241.128 266.744 242.424ZM286.187 235.656C287.595 235.656 288.723 236.04 289.571 236.808C290.419 237.56 290.843 238.776 290.843 240.456V249H287.267V241.344C287.267 240.4 287.099 239.696 286.763 239.232C286.427 238.752 285.891 238.512 285.155 238.512C284.067 238.512 283.323 238.888 282.923 239.64C282.523 240.376 282.323 241.44 282.323 242.832V249H278.747V235.896H281.483L281.963 237.576H282.155C282.443 237.128 282.795 236.768 283.211 236.496C283.627 236.208 284.091 236 284.603 235.872C285.115 235.728 285.643 235.656 286.187 235.656ZM294.016 247.32C294.016 246.584 294.216 246.072 294.616 245.784C295.016 245.48 295.504 245.328 296.08 245.328C296.64 245.328 297.12 245.48 297.52 245.784C297.92 246.072 298.12 246.584 298.12 247.32C298.12 248.024 297.92 248.536 297.52 248.856C297.12 249.16 296.64 249.312 296.08 249.312C295.504 249.312 295.016 249.16 294.616 248.856C294.216 248.536 294.016 248.024 294.016 247.32Z" fill="#F2F4F7"/>
<g filter="url(#filter1_d_2675_12205)">
<rect x="105" y="299" width="172" height="48" rx="8" fill="white"/>
<path d="M125.881 329V317.364H128.693V326.716H133.534V329H125.881ZM134.99 329V317.364H143.104V319.648H137.803V322.034H142.689V324.324H137.803V326.716H143.104V329H134.99ZM144.484 319.648V317.364H154.32V319.648H150.791V329H148.018V319.648H144.484ZM158.006 317.364V318.659C158.006 319.019 157.934 319.383 157.79 319.75C157.65 320.114 157.466 320.455 157.239 320.773C157.011 321.091 156.771 321.36 156.517 321.58L155.335 320.932C155.509 320.644 155.665 320.32 155.801 319.96C155.938 319.597 156.006 319.165 156.006 318.665V317.364H158.006ZM165.858 320.852C165.82 320.436 165.652 320.112 165.352 319.881C165.057 319.646 164.634 319.528 164.085 319.528C163.722 319.528 163.419 319.576 163.176 319.67C162.934 319.765 162.752 319.896 162.631 320.062C162.509 320.225 162.447 320.413 162.443 320.625C162.436 320.799 162.47 320.953 162.545 321.085C162.625 321.218 162.739 321.335 162.886 321.438C163.038 321.536 163.22 321.623 163.432 321.699C163.644 321.775 163.883 321.841 164.148 321.898L165.148 322.125C165.723 322.25 166.231 322.417 166.67 322.625C167.114 322.833 167.485 323.081 167.784 323.369C168.087 323.657 168.316 323.989 168.472 324.364C168.627 324.739 168.706 325.159 168.71 325.625C168.706 326.36 168.521 326.991 168.153 327.517C167.786 328.044 167.258 328.447 166.568 328.727C165.883 329.008 165.055 329.148 164.085 329.148C163.112 329.148 162.263 329.002 161.54 328.71C160.816 328.419 160.254 327.975 159.852 327.381C159.451 326.786 159.244 326.034 159.233 325.125H161.926C161.949 325.5 162.049 325.812 162.227 326.062C162.405 326.312 162.65 326.502 162.96 326.631C163.275 326.759 163.638 326.824 164.051 326.824C164.43 326.824 164.752 326.773 165.017 326.67C165.286 326.568 165.492 326.426 165.636 326.244C165.78 326.062 165.854 325.854 165.858 325.619C165.854 325.4 165.786 325.212 165.653 325.057C165.521 324.898 165.316 324.761 165.04 324.648C164.767 324.53 164.419 324.422 163.994 324.324L162.778 324.04C161.771 323.809 160.977 323.436 160.398 322.92C159.818 322.402 159.53 321.701 159.534 320.818C159.53 320.098 159.723 319.468 160.114 318.926C160.504 318.384 161.044 317.962 161.733 317.659C162.422 317.356 163.208 317.205 164.091 317.205C164.992 317.205 165.775 317.358 166.438 317.665C167.104 317.968 167.621 318.394 167.989 318.943C168.356 319.492 168.544 320.129 168.551 320.852H165.858ZM173.188 319.648V317.364H183.023V319.648H179.494V329H176.722V319.648H173.188ZM185.46 329H182.438L186.364 317.364H190.108L194.034 329H191.011L188.278 320.295H188.188L185.46 329ZM185.057 324.42H191.375V326.557H185.057V324.42ZM195.287 329V317.364H198.099V326.716H202.94V329H195.287ZM204.396 329V317.364H207.209V322.284H207.362L211.209 317.364H214.521L210.396 322.557L214.595 329H211.232L208.334 324.426L207.209 325.847V329H204.396ZM218.898 317.364L218.636 325.438H216.301L216.04 317.364H218.898ZM217.466 329.165C217.061 329.165 216.712 329.021 216.42 328.733C216.133 328.445 215.989 328.097 215.989 327.688C215.989 327.286 216.133 326.943 216.42 326.659C216.712 326.371 217.061 326.227 217.466 326.227C217.856 326.227 218.199 326.371 218.494 326.659C218.794 326.943 218.943 327.286 218.943 327.688C218.943 327.96 218.873 328.208 218.733 328.432C218.597 328.655 218.417 328.833 218.193 328.966C217.973 329.098 217.731 329.165 217.466 329.165Z" fill="#101828"/>
<path d="M252 316L238 330M252 316V329.176M252 316H238.824" stroke="#101828" stroke-width="3" stroke-linecap="square" stroke-linejoin="bevel"/>
</g>
</g>
<defs>
<filter id="filter0_b_2675_12205" x="-91" y="-91" width="563" height="674" filterUnits="userSpaceOnUse" color-interpolation-filters="sRGB">
<feFlood flood-opacity="0" result="BackgroundImageFix"/>
<feGaussianBlur in="BackgroundImageFix" stdDeviation="45.5"/>
<feComposite in2="SourceAlpha" operator="in" result="effect1_backgroundBlur_2675_12205"/>
<feBlend mode="normal" in="SourceGraphic" in2="effect1_backgroundBlur_2675_12205" result="shape"/>
</filter>
<filter id="filter1_d_2675_12205" x="89" y="297" width="204" height="80" filterUnits="userSpaceOnUse" color-interpolation-filters="sRGB">
<feFlood flood-opacity="0" result="BackgroundImageFix"/>
<feColorMatrix in="SourceAlpha" type="matrix" values="0 0 0 0 0 0 0 0 0 0 0 0 0 0 0 0 0 0 127 0" result="hardAlpha"/>
<feOffset dy="14"/>
<feGaussianBlur stdDeviation="8"/>
<feComposite in2="hardAlpha" operator="out"/>
<feColorMatrix type="matrix" values="0 0 0 0 0.113725 0 0 0 0 0.160784 0 0 0 0 0.223529 0 0 0 0.05 0"/>
<feBlend mode="normal" in2="BackgroundImageFix" result="effect1_dropShadow_2675_12205"/>
<feBlend mode="normal" in="SourceGraphic" in2="effect1_dropShadow_2675_12205" result="shape"/>
</filter>
</defs>
</svg>
